<svg xmlns="http://www.w3.org/2000/svg" width="108" height="108" viewBox="0 0 108 108"><defs><style>.a{fill:none;}.b{fill:#db23b5;}.c{fill:#2e2e4a;}.d{fill:#fff;}</style></defs><g transform="translate(-0.312 -695.188)"><rect class="a" width="108" height="108" transform="translate(0.312 695.188)"/><g transform="translate(22.886 700.68)"><path class="b" d="M-2868.054,972.644v54.412l49.126-27.206Z" transform="translate(2868.054 -972.644)"/><g transform="translate(7.203 24.086)"><path class="c" d="M-2838.911,1027.569v13.372h3.33v-13.372h6.659v-3.33h-6.659v-13.328h-3.33v16.658Z" transform="translate(2862.272 -1007.578)"/><path class="c" d="M-2854.151,1044.242v9.986h3.388v-43.318h-3.388v30h-3.289v3.329Z" transform="translate(2867.455 -1007.578)"/><rect class="c" width="3.316" height="3.315" transform="translate(50.023 26.677)"/><rect class="c" width="6.669" height="3.333" transform="translate(16.692)"/><path class="c" d="M-2861.33,1051.268v-3.343h-10.015v10h3.35v-6.652Z" transform="translate(2871.345 -1017.933)"/><path class="c" d="M-2811.138,1052h3.33v-9.988h3.329v-3.384h-6.659V1052Z" transform="translate(2854.502 -1015.331)"/><path class="c" d="M-2825.043,1047.384h3.33V1037.34h6.686v-3.3h-10.015v13.345Z" transform="translate(2858.392 -1014.048)"/><rect class="c" width="3.333" height="9.997" transform="translate(50.023 53.331)"/><rect class="c" width="3.325" height="23.339" transform="translate(53.357 29.992)"/><rect class="c" width="3.35" height="3.35" transform="translate(3.35 39.987)"/><path class="c" d="M-2818.169,1100.821h-26.676v-6.631h-3.33v10.019h33.335V1094.2h-3.329Z" transform="translate(2864.864 -1030.876)"/><rect class="c" width="3.331" height="6.65" transform="translate(13.357 56.663)"/><rect class="c" width="3.316" height="6.673" transform="translate(6.7 43.337)"/><rect class="c" width="3.341" height="6.654" transform="translate(10.015 50.009)"/><path class="d" d="M-2816.705,1037.553v.017h-3.316v-3.315h-3.329v9.988h-3.33V1030.87h-6.686v10.043h-3.329v-13.345h-6.659v13.372h-3.329v-30.03h-6.669v43.318h-3.388v-9.986h-3.289v-3.329h-6.665v6.652h3.35v3.35h3.316v6.673h3.341v6.654h3.331v6.65h3.33v6.631h26.676v-6.618h3.329v-10h3.333V1037.57Z" transform="translate(2870.044 -1007.578)"/></g></g></g></svg>