<svg xmlns="http://www.w3.org/2000/svg" width="108" height="108" viewBox="0 0 108 108"><defs><style>.c{fill:#2e2e4a}</style></defs><path fill="none" d="M0 0h108v108H0z"/><path d="M22.574 5.492v54.412L71.7 32.698z" fill="#db23b5"/><path class="c" d="M53.138 49.569v13.372h3.33V49.569h6.659v-3.33h-6.659V32.911h-3.33v16.658zM43.081 66.242v9.986h3.388V32.91h-3.388v30h-3.289v3.329zM79.8 56.255h3.316v3.315H79.8zM46.469 29.578h6.669v3.333h-6.669zm-6.677 33.335V59.57H29.777v10h3.35v-6.652zm33.349 3.334h3.33v-9.988H79.8v-3.384h-6.659v13.372zm-10.015-3.333h3.33V52.87h6.686v-3.3H63.127v13.345zM79.8 82.909h3.333v9.997H79.8zm3.334-23.339h3.325v23.339h-3.325z"/><path class="c" d="M33.127 69.565h3.35v3.35h-3.35zm43.345 29.958H49.796v-6.631h-3.33v10.019h33.335V92.902h-3.329zM43.134 86.241h3.331v6.65h-3.331zm-6.657-13.326h3.316v6.673h-3.316z"/><path class="c" d="M39.792 79.587h3.341v6.654h-3.341z"/><path d="M83.116 59.553v.017H79.8v-3.315h-3.329v9.988h-3.33V52.87h-6.686v10.043h-3.329V49.568h-6.659V62.94h-3.329V32.91h-6.669v43.318h-3.388v-9.986h-3.289v-3.329h-6.665v6.652h3.35v3.35h3.316v6.673h3.341v6.654h3.331v6.65h3.33v6.631h26.676v-6.618H79.8v-10h3.333V59.57z" fill="#fff"/></svg>