<svg xmlns="http://www.w3.org/2000/svg" width="40" height="40" viewBox="0 0 40 40"><defs><style>.a{fill:none;}.b{fill:#5181b8;}.c{fill:#fff;}</style></defs><rect class="a" width="40" height="40"/><rect class="b" width="40" height="40" rx="8"/><path class="c" d="M-39.009,129.5H-42.25c-1.237,0-1.6-.986-3.8-3.184-1.923-1.855-2.747-2.095-3.228-2.095-.653,0-.848.185-.848,1.111v2.907c0,.8-.255,1.261-2.315,1.261-3.434,0-7.208-2.085-9.887-5.931-4.018-5.632-5.116-9.891-5.116-10.749,0-.481.185-.917,1.111-.917h3.241c.829,0,1.14.362,1.451,1.26,1.585,4.618,4.259,8.654,5.357,8.654.412,0,.6-.19.6-1.236v-4.774c-.121-2.2-1.289-2.378-1.289-3.159a.781.781,0,0,1,.825-.745h5.094c.687,0,.926.367.926,1.191v6.422c0,.687.3.928.5.928.413,0,.756-.241,1.512-1a27.115,27.115,0,0,0,3.983-6.627,1.4,1.4,0,0,1,1.41-.917h3.242c.98,0,1.186.5.98,1.191-.412,1.889-4.361,7.452-4.361,7.452-.344.55-.481.825,0,1.443.343.481,1.477,1.442,2.232,2.335a13.908,13.908,0,0,1,2.734,3.8C-37.62,129.034-38.083,129.5-39.009,129.5Z" transform="translate(72.627 -99.866)"/></svg>