<svg xmlns="http://www.w3.org/2000/svg" width="40" height="40" viewBox="0 0 40 40"><path fill="none" d="M0 0h40v40H0z"/><rect width="40" height="40" rx="8" fill="#5181b8"/><path d="M33.618 29.634h-3.241c-1.237 0-1.6-.986-3.8-3.184-1.923-1.855-2.747-2.095-3.228-2.095-.653 0-.848.185-.848 1.111v2.907c0 .8-.255 1.261-2.315 1.261-3.434 0-7.208-2.085-9.887-5.931-4.018-5.632-5.116-9.891-5.116-10.749 0-.481.185-.917 1.111-.917h3.241c.829 0 1.14.362 1.451 1.26 1.585 4.618 4.259 8.654 5.357 8.654.412 0 .6-.19.6-1.236v-4.774c-.121-2.2-1.289-2.378-1.289-3.159a.781.781 0 01.825-.745h5.094c.687 0 .926.367.926 1.191v6.422c0 .687.3.928.5.928.413 0 .756-.241 1.512-1a27.115 27.115 0 003.983-6.627 1.4 1.4 0 011.41-.917h3.242c.98 0 1.186.5.98 1.191-.412 1.889-4.361 7.452-4.361 7.452-.344.55-.481.825 0 1.443.343.481 1.477 1.442 2.232 2.335a13.908 13.908 0 012.734 3.8c.276.913-.187 1.379-1.113 1.379z" fill="#fff"/></svg>