<svg xmlns="http://www.w3.org/2000/svg" width="156.5" height="253.5" viewBox="0 0 156.5 253.5"><defs><style>.a{fill:#fff;stroke:#2e2e4a;stroke-miterlimit:10}</style></defs><path class="a" d="M57.435 38.71h97.791v94.536H57.435z"/><path class="a" d="M4.231 164.076a12.736 12.736 0 010-18.012l16.97-16.97a29.717 29.717 0 0121.014-8.7H79.39l5.04 25.474H42.216a4.246 4.246 0 00-3 1.244l-16.969 16.969a12.736 12.736 0 01-18.016-.005z"/><path class="a" d="M109.976 145.867H67.761a4.247 4.247 0 00-3 1.244L47.792 164.08a12.736 12.736 0 01-18.013 0 12.736 12.736 0 010-18.012l16.97-16.97a29.719 29.719 0 0121.015-8.7h16.317"/><path class="a" d="M155.226 120.363v43.812a26.323 26.323 0 01-26.323 26.323h-1.7a12.736 12.736 0 01-12.737-12.737 12.737 12.737 0 0112.737-12.737h1.7a.849.849 0 00.849-.849v-18.334h-28.87a9.341 9.341 0 00-9.34 9.341v.507a9.341 9.341 0 009.34 9.34 12.737 12.737 0 0112.737 12.737 12.737 12.737 0 01-12.737 12.737 34.814 34.814 0 01-34.814-34.814v-.507a34.814 34.814 0 0134.814-34.814"/><g transform="translate(63.096 160.096)"><circle cx="46.702" cy="46.702" r="46.702" fill="#ffd02f"/><path d="M84.064 46.703A37.362 37.362 0 0046.702 9.341 37.362 37.362 0 009.34 46.703a37.361 37.361 0 0037.362 37.362" fill="none" stroke-miterlimit="10" stroke="#2e2e4a"/><text transform="translate(32.023 61.212)" font-size="47" font-family="Qanelas-LightItalic,Qanelas" font-weight="300" font-style="italic" fill="#2e2e4a"><tspan x="0" y="0">₽</tspan></text></g><path fill="#2e2e4a" stroke="#2e2e4a" d="M57.435.5h97.791v50.152H57.435z"/><path class="a" d="M155.227 120.363v43.812a26.323 26.323 0 01-26.323 26.323h-1.7a12.736 12.736 0 01-12.737-12.737 12.737 12.737 0 0112.737-12.737h1.7a.849.849 0 00.849-.849v-18.334h-28.87"/></svg>