<svg xmlns="http://www.w3.org/2000/svg" width="190.343" height="372" viewBox="0 0 190.343 372"><defs><style>.a,.f{fill:#2e2e4a;}.b,.c,.e{fill:#fff;}.b,.e,.f,.h{stroke:#2e2e4a;}.b,.f,.h,.k{stroke-miterlimit:10;}.d{fill:#ffd02f;}.e{stroke-linecap:round;stroke-linejoin:round;}.g{fill:#f4f8fb;}.h,.k{fill:none;}.i{fill:#3f53d9;}.j{fill:#db23b5;}.k{stroke:#000;}</style></defs><g transform="translate(1549.498 -141.046)"><g transform="translate(-1549.327 141.046)"><path class="a" d="M22.222,0h0A22.222,22.222,0,0,1,44.445,22.222V53.2a0,0,0,0,1,0,0H0a0,0,0,0,1,0,0V22.222A22.222,22.222,0,0,1,22.222,0Z" transform="translate(71.5)"/><g transform="translate(0 2.42)"><path class="b" d="M-1454.327,214.941l19.118-28.478h-38.236Z" transform="translate(1549.327 -143.467)"/><g transform="translate(0 42.996)"><rect class="c" width="47.189" height="85.147" transform="translate(142.812 71.377)"/><rect class="c" width="47.189" height="85.147" transform="translate(0 71.377)"/><rect class="c" width="0.826" height="85.147" transform="translate(0 71.377)"/><rect class="a" width="1" height="85.147" transform="translate(0 71.377)"/><rect class="a" width="1" height="85.147" transform="translate(189 71.377)"/><path class="d" d="M-1405.1,186.486v-.023h-98.445v.023a46.679,46.679,0,0,0-45.778,46.664v24.69h47.189v85.147h95.623V257.84h47.188v85.147h0V233.15A46.678,46.678,0,0,0-1405.1,186.486Z" transform="translate(1549.327 -186.463)"/></g><circle class="b" cx="19.368" cy="19.368" r="19.368" transform="translate(74.139)"/><path class="e" d="M-1449.131,160.137l.821,6.051h-4.308" transform="translate(1549.327 -143.467)"/><circle class="a" cx="0.999" cy="0.999" r="0.999" transform="translate(94.797 19.022)"/><circle class="a" cx="0.999" cy="0.999" r="0.999" transform="translate(102.738 19.022)"/><path class="e" d="M-1458.489,167.788s.263,4.731,6.636,4.731" transform="translate(1549.327 -143.467)"/><path class="e" d="M-1473.722,166.3h-1.56a2.546,2.546,0,0,1-2.545-2.545v0a2.546,2.546,0,0,1,2.545-2.545h1.56" transform="translate(1549.327 -143.467)"/><path class="f" d="M-1455.82,143.467a19.256,19.256,0,0,0-19.292,17.745c3.229,0,21.626.1,21.626-12.84,0,0,3.022,10.353,16.746,11.248A19.356,19.356,0,0,0-1455.82,143.467Z" transform="translate(1549.327 -143.467)"/></g><g transform="translate(0 84.861)"><g transform="translate(0 42.996)"><path class="g" d="M-1405.1,269.328V269.3h-98.445v.023a46.68,46.68,0,0,0-45.778,46.665V425.829h190V315.993A46.679,46.679,0,0,0-1405.1,269.328Z" transform="translate(1549.327 -269.305)"/><path class="h" d="M-1549,425.5V315.993a46.071,46.071,0,0,1,13.283-32.475,46.1,46.1,0,0,1,32.172-13.862l.322-.006v-.016h97.859l.252.022a46.1,46.1,0,0,1,32.172,13.862,46.07,46.07,0,0,1,13.283,32.475V425.5Z" transform="translate(1549.327 -269.305)"/><line class="h" y2="24.188" transform="translate(47.189 61.693)"/><line class="h" y2="24.188" transform="translate(142.812 61.693)"/></g><circle class="b" cx="19.368" cy="19.368" r="19.368" transform="translate(74.139)"/><path class="f" d="M-1470.326,243.49l.022,6.183a1.266,1.266,0,0,1-1.267,1.271h-2.886a19.381,19.381,0,0,1-.557-7.862,19.425,19.425,0,0,1,17.405-16.692,19.318,19.318,0,0,1,14.71,4.862c-2.176,1.608-9.426,2.316-13.177,2.316h0A9.922,9.922,0,0,1-1466,243.49h-4.328" transform="translate(1549.327 -226.309)"/><path class="b" d="M-1469.693,243.49h-1.832a1.919,1.919,0,0,0-1.919,1.919h0a1.919,1.919,0,0,0,1.919,1.919h1.832" transform="translate(1549.327 -226.309)"/><path class="e" d="M-1448.31,241.08v7.951h-2.408" transform="translate(1549.327 -226.309)"/><circle class="a" cx="0.999" cy="0.999" r="0.999" transform="translate(92.897 19.022)"/><circle class="a" cx="0.999" cy="0.999" r="0.999" transform="translate(104.005 19.022)"/><path class="e" d="M-1458.489,250.631s.263,4.731,6.636,4.731" transform="translate(1549.327 -226.309)"/></g><line class="b" y2="44.485" transform="translate(94.156 127.94)"/><g transform="translate(0.001 117.323)"><rect class="i" width="98.445" height="156.524" transform="translate(45.777 92.962)"/><path class="c" d="M-1454.327,380.626l19.118-28.478h-38.236Z" transform="translate(1549.326 -259.186)"/><g transform="translate(0 92.962)"><path class="i" d="M-1406.515,399.337V508.672h47.188V398.836a46.687,46.687,0,0,0-46.687-46.688h-6.295" transform="translate(1549.326 -352.148)"/><path class="i" d="M-1502.138,399.337V508.672h-47.188V398.836a46.687,46.687,0,0,1,46.687-46.688h6.3" transform="translate(1549.326 -352.148)"/><line class="h" y2="24.188" transform="translate(47.188 61.492)"/><line class="h" y2="24.188" transform="translate(142.811 61.492)"/></g><circle class="b" cx="19.368" cy="19.368" r="19.368" transform="translate(74.138 49.966)"/><path class="e" d="M-1449.131,325.823l.821,6.051h-4.308" transform="translate(1549.326 -259.186)"/><circle class="a" cx="0.999" cy="0.999" r="0.999" transform="translate(94.796 68.988)"/><circle class="a" cx="0.999" cy="0.999" r="0.999" transform="translate(102.737 68.988)"/><path class="e" d="M-1458.489,333.474s.263,4.73,6.636,4.73" transform="translate(1549.326 -259.186)"/><path class="e" d="M-1473.722,331.99h-1.56a2.545,2.545,0,0,1-2.545-2.544v0a2.545,2.545,0,0,1,2.545-2.544h1.56" transform="translate(1549.326 -259.186)"/><path class="a" d="M-1459.478,288.951a7.37,7.37,0,0,0-4.293-6.694,7.375,7.375,0,0,0,.472-8.092,7.372,7.372,0,0,0-7.065-3.651A7.376,7.376,0,0,0-1474,263.27a7.372,7.372,0,0,0-7.943.371,7.377,7.377,0,0,0-6.772-4.455,7.37,7.37,0,0,0-6.694,4.293,7.375,7.375,0,0,0-8.092-.472,7.37,7.37,0,0,0-3.65,7.065,7.374,7.374,0,0,0-7.245,3.637,7.372,7.372,0,0,0,.371,7.943,7.376,7.376,0,0,0-4.455,6.772,7.371,7.371,0,0,0,4.293,6.694,7.375,7.375,0,0,0-.472,8.092,7.37,7.37,0,0,0,7.065,3.65,7.374,7.374,0,0,0,3.637,7.244,7.37,7.37,0,0,0,7.943-.37,7.376,7.376,0,0,0,6.772,4.454,7.371,7.371,0,0,0,6.694-4.292,7.377,7.377,0,0,0,8.092.472,7.37,7.37,0,0,0,3.65-7.065,7.374,7.374,0,0,0,7.244-3.637,7.37,7.37,0,0,0-.37-7.943A7.376,7.376,0,0,0-1459.478,288.951Z" transform="translate(1549.326 -259.186)"/><circle class="e" cx="7.375" cy="7.375" r="7.375" transform="translate(76.491 46.377)"/><path class="a" d="M-1455.82,309.152a19.659,19.659,0,0,0-19.292,18.207c3.306,1.16,21.626-.36,21.626-13.3,0,0,3.022,10.352,16.746,11.248A19.356,19.356,0,0,0-1455.82,309.152Z" transform="translate(1549.326 -259.186)"/></g><path class="j" d="M-1405.1,431.709v-.023h-98.445v.023a46.68,46.68,0,0,0-45.778,46.665V500.6h47.189v13.267h95.623V500.6h47.188v13.267h0V478.374A46.679,46.679,0,0,0-1405.1,431.709Z" transform="translate(1549.327 -141.863)"/><path class="h" d="M0,0H21.914a0,0,0,0,1,0,0V13.231A10.957,10.957,0,0,1,10.957,24.188h0A10.957,10.957,0,0,1,0,13.231V0A0,0,0,0,1,0,0Z" transform="translate(109.612 334.545)"/><g transform="translate(47.189 246.827)"><g transform="translate(0 87.718)"><line class="h" y2="24.188"/><line class="h" y2="24.188" transform="translate(95.622)"/></g><circle class="b" cx="19.368" cy="19.368" r="19.368" transform="translate(26.95 0)"/><path class="a" d="M-1461.776,397.152l3.006,5.066h21.42a19.375,19.375,0,0,0-18.47-13.528,19.376,19.376,0,0,0-18.47,13.528h12.514Z" transform="translate(1502.138 -388.69)"/><line class="e" y2="2.383" transform="translate(50.285 28.879)"/><path class="e" d="M-1448.31,405.361v6.051h-4.308" transform="translate(1502.138 -388.69)"/><circle class="a" cx="0.999" cy="0.999" r="0.999" transform="translate(47.607 19.023)"/><circle class="a" cx="0.999" cy="0.999" r="0.999" transform="translate(55.549 19.023)"/><path class="e" d="M-1473.722,411.529h-1.56a2.546,2.546,0,0,1-2.545-2.545v0a2.545,2.545,0,0,1,2.545-2.545h1.56" transform="translate(1502.138 -388.69)"/></g><path class="b" d="M-1454.327,446.3a14.612,14.612,0,0,0,14.612-14.612h-29.223A14.612,14.612,0,0,0-1454.327,446.3Z" transform="translate(1549.327 -141.709)"/><rect class="c" width="47.189" height="13.267" transform="translate(142.812 358.733)"/><rect class="c" width="47.189" height="13.267" transform="translate(0 358.733)"/><path class="f" d="M0,0H15.451A3.629,3.629,0,0,1,19.08,3.629v0a3.629,3.629,0,0,1-3.629,3.629H0a0,0,0,0,1,0,0V0A0,0,0,0,1,0,0Z" transform="translate(93.507 85.073)"/><line class="k" y2="24.188" transform="translate(47.189 92.388)"/><line class="k" y2="24.188" transform="translate(142.812 92.388)"/></g><rect class="a" width="1" height="13.267" transform="translate(-1549.327 499.779)"/><rect class="a" width="1" height="13.267" transform="translate(-1360.327 499.779)"/></g></svg>