<svg xmlns="http://www.w3.org/2000/svg" width="185" height="139" viewBox="0 0 185 139"><defs><style>.f{fill:#fff}</style></defs><g transform="translate(.5 .5)"><path d="M0 14.48V9.05A9.037 9.037 0 019.024 0h165.952a9.036 9.036 0 019.023 9.05v5.43M0 14.48h184V126a12 12 0 01-12 12H12a12 12 0 01-12-12V14.48z" fill="#ffd02f" stroke="#2e2e4a" stroke-miterlimit="10"/><circle cx="2.715" cy="2.715" r="2.715" transform="translate(6.335 4.525)" fill="#ff788f"/><circle cx="2.715" cy="2.715" r="2.715" transform="translate(14.782 4.525)" fill="#2e2e4a"/><circle cx="2.715" cy="2.715" r="2.715" transform="translate(23.228 4.525)" fill="#fff" stroke="#2e2e4a" stroke-miterlimit="10"/><g transform="translate(19.233 42.904)"><path d="M4.467 33.267l34.15 21.6 34.15-28.8 34.15 14.4 34.15-36" fill="none" stroke-width="2" stroke="#2e2e4a" stroke-miterlimit="10"/><circle class="f" cx="4.467" cy="4.467" r="4.467" transform="translate(0 28.8)"/><circle class="f" cx="4.467" cy="4.467" r="4.467" transform="translate(34.15 50.4)"/><circle class="f" cx="4.467" cy="4.467" r="4.467" transform="translate(68.3 21.6)"/><circle class="f" cx="4.467" cy="4.467" r="4.467" transform="translate(102.449 36)"/><circle class="f" cx="4.467" cy="4.467" r="4.467" transform="translate(136.599)"/></g></g></svg>