<svg xmlns="http://www.w3.org/2000/svg" width="185" height="139" viewBox="0 0 185 139"><defs><style>.a{fill:#ffd02f;}.a,.d,.e{stroke:#2e2e4a;stroke-miterlimit:10;}.b{fill:#ff788f;}.c{fill:#2e2e4a;}.d,.f{fill:#fff;}.e{fill:none;stroke-width:2px;}</style></defs><g transform="translate(0.5 0.5)"><path class="a" d="M-2800.444,352.347v-5.43a9.037,9.037,0,0,1,9.024-9.05h165.952a9.036,9.036,0,0,1,9.023,9.05v5.43" transform="translate(2800.444 -337.867)"/><g transform="translate(0 14.48)"><path class="a" d="M0,0H184a0,0,0,0,1,0,0V111.52a12,12,0,0,1-12,12H12a12,12,0,0,1-12-12V0A0,0,0,0,1,0,0Z"/></g><circle class="b" cx="2.715" cy="2.715" r="2.715" transform="translate(6.335 4.525)"/><circle class="c" cx="2.715" cy="2.715" r="2.715" transform="translate(14.782 4.525)"/><circle class="d" cx="2.715" cy="2.715" r="2.715" transform="translate(23.228 4.525)"/><g transform="translate(19.233 42.904)"><path class="e" d="M-2767.527,432.719l34.15,21.6,34.15-28.8,34.15,14.4,34.15-36" transform="translate(2771.994 -399.452)"/><circle class="f" cx="4.467" cy="4.467" r="4.467" transform="translate(0 28.8)"/><circle class="f" cx="4.467" cy="4.467" r="4.467" transform="translate(34.15 50.4)"/><circle class="f" cx="4.467" cy="4.467" r="4.467" transform="translate(68.3 21.6)"/><circle class="f" cx="4.467" cy="4.467" r="4.467" transform="translate(102.449 36)"/><circle class="f" cx="4.467" cy="4.467" r="4.467" transform="translate(136.599)"/></g></g></svg>