<svg xmlns="http://www.w3.org/2000/svg" width="137.327" height="268" viewBox="0 0 137.327 268"><defs><style>.a,.f{fill:#2e2e4a}.b,.c,.e{fill:#fff}.b,.e,.f,.h{stroke:#2e2e4a}.b,.f,.h{stroke-miterlimit:10}.e{stroke-linecap:round;stroke-linejoin:round}.h{fill:none}.i{fill:#3f53d9}</style></defs><path class="a" d="M67.743 0a16 16 0 0116 16v22.3h-32V16a16 16 0 0116-16z"/><g transform="translate(.263 1.743)"><path class="b" d="M68.4 51.462l13.765-20.5h-27.53z"/><path class="c" d="M102.824 82.348H136.8v61.306h-33.976zM0 82.348h33.976v61.306H0z"/><path class="c" d="M0 82.348h.595v61.306H0z"/><path class="a" d="M0 82.348h.72v61.306H0zm136.08 0h.72v61.306h-.72z"/><path d="M103.841 30.974v-.017h-70.88v.017a33.609 33.609 0 00-32.96 33.6v17.777h33.976v61.303h68.848V82.348H136.8v61.306-79.082a33.608 33.608 0 00-32.959-33.598z" fill="#ffd02f"/><circle class="b" cx="13.945" cy="13.945" r="13.945" transform="translate(53.38)"/><path class="e" d="M72.142 12.003l.591 4.357h-3.1"/><circle class="a" cx=".719" cy=".719" r=".719" transform="translate(68.254 13.696)"/><circle class="a" cx=".719" cy=".719" r=".719" transform="translate(73.971 13.696)"/><path class="e" d="M65.403 17.511s.189 3.406 4.778 3.406m-15.746-4.473h-1.123a1.833 1.833 0 01-1.833-1.832 1.833 1.833 0 011.833-1.832h1.123"/><path class="f" d="M67.325 0a13.864 13.864 0 00-13.89 12.776c2.325 0 15.571.073 15.571-9.245 0 0 2.176 7.454 12.057 8.1A13.936 13.936 0 0067.325 0z"/></g><g transform="translate(.263 61.179)"><path d="M103.841 30.974v-.022h-70.88v.017a33.61 33.61 0 00-32.96 33.6v79.083h136.8v-79.08a33.609 33.609 0 00-32.96-33.598z" fill="#f4f8fb"/><path class="h" d="M.235 143.418V64.573a33.171 33.171 0 019.564-23.382 33.193 33.193 0 0123.164-9.981h.232v-.012h70.458l.182.016a33.193 33.193 0 0123.164 9.981 33.17 33.17 0 019.564 23.382v78.846zm33.741-68.042v17.416m68.848-17.416v17.416"/><circle class="b" cx="13.945" cy="13.945" r="13.945" transform="translate(53.38)"/><path class="f" d="M56.881 12.37l.016 4.452a.912.912 0 01-.912.915h-2.078a13.955 13.955 0 01-.4-5.661A13.986 13.986 0 0166.039.058a13.909 13.909 0 0110.591 3.5c-1.567 1.158-6.787 1.668-9.487 1.668a7.144 7.144 0 01-7.144 7.144h-3.116"/><path class="b" d="M57.337 12.37h-1.319a1.382 1.382 0 00-1.382 1.382 1.382 1.382 0 001.382 1.382h1.319"/><path class="e" d="M72.732 10.635v5.72h-1.734"/><circle class="a" cx=".719" cy=".719" r=".719" transform="translate(66.886 13.696)"/><circle class="a" cx=".719" cy=".719" r=".719" transform="translate(74.883 13.696)"/><path class="e" d="M65.403 17.512s.189 3.406 4.778 3.406"/></g><path class="b" d="M68.055 92.179v32.029"/><g transform="translate(.264 84.633)"><path class="i" d="M32.959 66.933h70.881V179.63H32.959z"/><path class="c" d="M68.399 87.437l13.765-20.5h-27.53z"/><path class="i" d="M102.824 100.909v78.721h33.975v-79.082a33.615 33.615 0 00-33.615-33.615h-4.532m-64.677 33.976v78.721H0v-79.082a33.615 33.615 0 0133.615-33.615h4.532"/><path class="h" d="M33.976 111.207v17.416m68.848-17.416v17.416"/><circle class="b" cx="13.945" cy="13.945" r="13.945" transform="translate(53.379 35.976)"/><path class="e" d="M72.141 47.979l.591 4.357h-3.1"/><circle class="a" cx=".719" cy=".719" r=".719" transform="translate(68.253 49.672)"/><circle class="a" cx=".719" cy=".719" r=".719" transform="translate(73.971 49.672)"/><path class="e" d="M65.403 53.487s.189 3.406 4.778 3.406m-15.747-4.474h-1.123a1.832 1.832 0 01-1.833-1.832 1.832 1.832 0 011.833-1.832h1.123"/><path class="a" d="M64.689 21.431a5.306 5.306 0 00-3.091-4.82 5.31 5.31 0 00.34-5.826 5.308 5.308 0 00-5.087-2.629 5.311 5.311 0 00-2.619-5.216 5.308 5.308 0 00-5.719.267 5.311 5.311 0 00-4.876-3.208 5.306 5.306 0 00-4.82 3.091 5.31 5.31 0 00-5.826-.34 5.306 5.306 0 00-2.628 5.087 5.31 5.31 0 00-5.216 2.619 5.308 5.308 0 00.267 5.719 5.311 5.311 0 00-3.208 4.876 5.307 5.307 0 003.091 4.82 5.31 5.31 0 00-.34 5.826 5.306 5.306 0 005.087 2.628 5.309 5.309 0 002.619 5.216 5.306 5.306 0 005.719-.266 5.31 5.31 0 004.876 3.207 5.307 5.307 0 004.82-3.09 5.311 5.311 0 005.826.34 5.306 5.306 0 002.628-5.087 5.309 5.309 0 005.216-2.619 5.307 5.307 0 00-.266-5.719 5.311 5.311 0 003.207-4.876z"/><circle class="e" cx="5.31" cy="5.31" r="5.31" transform="translate(55.073 33.391)"/><path class="a" d="M67.324 35.976a14.154 14.154 0 00-13.89 13.109c2.38.835 15.571-.259 15.571-9.577 0 0 2.176 7.453 12.057 8.1a13.936 13.936 0 00-13.738-11.632z"/></g><path d="M104.104 208.847v-.017h-70.88v.017a33.61 33.61 0 00-32.96 33.6v16H34.24v9.552h68.848v-9.552h33.975v9.552-25.552a33.609 33.609 0 00-32.959-33.6z" fill="#db23b5"/><path class="h" d="M79.184 241.032h15.778v9.527a7.889 7.889 0 01-7.889 7.889 7.889 7.889 0 01-7.889-7.889v-9.527z"/><g transform="translate(34.239 177.875)"><path class="h" d="M0 63.157v17.416m68.848-17.416v17.416"/><circle class="b" cx="13.945" cy="13.945" r="13.945" transform="translate(19.404)"/><path class="a" d="M29.06 6.093l2.164 3.647h15.423A13.951 13.951 0 0033.347 0a13.951 13.951 0 00-13.3 9.74h9.01z"/><path class="e" d="M36.205 20.793v1.716m2.551-10.506v4.357h-3.1"/><circle class="a" cx=".719" cy=".719" r=".719" transform="translate(34.277 13.696)"/><circle class="a" cx=".719" cy=".719" r=".719" transform="translate(39.995 13.696)"/><path class="e" d="M20.459 16.441h-1.123a1.833 1.833 0 01-1.833-1.832 1.832 1.832 0 011.833-1.832h1.123"/></g><path class="b" d="M68.663 219.434a10.521 10.521 0 0010.521-10.521H58.143a10.52 10.52 0 0010.52 10.521z"/><path class="c" d="M103.087 258.448h33.976V268h-33.976zm-102.824 0h33.976V268H.263z"/><path class="f" d="M67.588 61.29h11.124a2.613 2.613 0 012.613 2.613 2.613 2.613 0 01-2.613 2.613H67.588V61.29z"/><path d="M34.239 66.562v17.416m68.848-17.416v17.416" stroke="#000" fill="none" stroke-miterlimit="10"/><path class="a" d="M.263 248.448h.72V258h-.72zm136.08 0h.72V258h-.72z"/></svg>