<svg xmlns="http://www.w3.org/2000/svg" width="137.327" height="268" viewBox="0 0 137.327 268"><defs><style>.a,.f{fill:#2e2e4a;}.b,.c,.e{fill:#fff;}.b,.e,.f,.h{stroke:#2e2e4a;}.b,.f,.h,.k{stroke-miterlimit:10;}.d{fill:#ffd02f;}.e{stroke-linecap:round;stroke-linejoin:round;}.g{fill:#f4f8fb;}.h,.k{fill:none;}.i{fill:#3f53d9;}.j{fill:#db23b5;}.k{stroke:#000;}</style></defs><g transform="translate(0.263)"><path class="a" d="M16,0h0A16,16,0,0,1,32,16V38.3a0,0,0,0,1,0,0H0a0,0,0,0,1,0,0V16A16,16,0,0,1,16,0Z" transform="translate(51.48)"/><g transform="translate(0 1.743)"><path class="b" d="M-1459.68,206.967l13.765-20.5h-27.53Z" transform="translate(1528.08 -155.505)"/><g transform="translate(0 30.957)"><rect class="c" width="33.976" height="61.306" transform="translate(102.824 51.391)"/><rect class="c" width="33.976" height="61.306" transform="translate(0 51.391)"/><rect class="c" width="0.595" height="61.306" transform="translate(0 51.391)"/><rect class="a" width="0.72" height="61.306" transform="translate(0 51.391)"/><rect class="a" width="0.72" height="61.306" transform="translate(136.08 51.391)"/><path class="d" d="M-1445.486,186.48v-.017h-70.88v.017a33.609,33.609,0,0,0-32.96,33.6v17.777h33.976V299.16h68.848V237.854h33.975V299.16h0V220.078A33.608,33.608,0,0,0-1445.486,186.48Z" transform="translate(1549.327 -186.463)"/></g><circle class="b" cx="13.945" cy="13.945" r="13.945" transform="translate(53.38)"/><path class="e" d="M-1450.107,160.137l.591,4.357h-3.1" transform="translate(1522.249 -148.134)"/><circle class="a" cx="0.719" cy="0.719" r="0.719" transform="translate(68.254 13.696)"/><circle class="a" cx="0.719" cy="0.719" r="0.719" transform="translate(73.971 13.696)"/><path class="e" d="M-1458.489,167.788s.189,3.406,4.778,3.406" transform="translate(1523.892 -150.277)"/><path class="e" d="M-1474.872,164.879h-1.123a1.833,1.833,0,0,1-1.833-1.832v0a1.833,1.833,0,0,1,1.833-1.832h1.123" transform="translate(1529.307 -148.435)"/><path class="f" d="M-1461.222,143.467a13.864,13.864,0,0,0-13.89,12.776c2.325,0,15.571.073,15.571-9.245,0,0,2.176,7.454,12.057,8.1A13.936,13.936,0,0,0-1461.222,143.467Z" transform="translate(1528.547 -143.467)"/></g><g transform="translate(0 61.179)"><g transform="translate(0 30.957)"><path class="g" d="M-1445.486,269.322V269.3h-70.88v.017a33.61,33.61,0,0,0-32.96,33.6V382h136.8V302.92A33.609,33.609,0,0,0-1445.486,269.322Z" transform="translate(1549.327 -269.305)"/><path class="h" d="M-1549,381.858V303.013a33.171,33.171,0,0,1,9.564-23.382,33.193,33.193,0,0,1,23.164-9.981l.232,0v-.012h70.458l.182.016a33.193,33.193,0,0,1,23.164,9.981,33.17,33.17,0,0,1,9.564,23.382v78.846Z" transform="translate(1549.235 -269.397)"/><line class="h" y2="17.416" transform="translate(33.976 44.419)"/><line class="h" y2="17.416" transform="translate(102.824 44.419)"/></g><circle class="b" cx="13.945" cy="13.945" r="13.945" transform="translate(53.38)"/><path class="f" d="M-1471.687,238.679l.016,4.452a.912.912,0,0,1-.912.915h-2.078a13.955,13.955,0,0,1-.4-5.661,13.986,13.986,0,0,1,12.532-12.018,13.909,13.909,0,0,1,10.591,3.5c-1.567,1.158-6.787,1.668-9.487,1.668h0a7.144,7.144,0,0,1-7.144,7.144h-3.116" transform="translate(1528.568 -226.309)"/><path class="b" d="M-1470.743,243.49h-1.319a1.382,1.382,0,0,0-1.382,1.382h0a1.382,1.382,0,0,0,1.382,1.382h1.319" transform="translate(1528.08 -231.12)"/><path class="e" d="M-1448.984,241.08V246.8h-1.734" transform="translate(1521.716 -230.445)"/><circle class="a" cx="0.719" cy="0.719" r="0.719" transform="translate(66.886 13.696)"/><circle class="a" cx="0.719" cy="0.719" r="0.719" transform="translate(74.883 13.696)"/><path class="e" d="M-1458.489,250.631s.189,3.406,4.778,3.406" transform="translate(1523.892 -233.119)"/></g><line class="b" y2="32.029" transform="translate(67.792 92.179)"/><g transform="translate(0.001 84.633)"><rect class="i" width="70.881" height="112.697" transform="translate(32.959 66.933)"/><path class="c" d="M-1459.68,372.652l13.765-20.5h-27.53Z" transform="translate(1528.079 -285.215)"/><g transform="translate(0 66.933)"><path class="i" d="M-1408.137,386.124v78.721h33.975V385.763a33.615,33.615,0,0,0-33.615-33.615h-4.532" transform="translate(1510.961 -352.148)"/><path class="i" d="M-1515.351,386.124v78.721h-33.975V385.763a33.615,33.615,0,0,1,33.615-33.615h4.532" transform="translate(1549.326 -352.148)"/><line class="h" y2="17.416" transform="translate(33.976 44.274)"/><line class="h" y2="17.416" transform="translate(102.824 44.274)"/></g><circle class="b" cx="13.945" cy="13.945" r="13.945" transform="translate(53.379 35.976)"/><path class="e" d="M-1450.107,325.823l.591,4.357h-3.1" transform="translate(1522.248 -277.844)"/><circle class="a" cx="0.719" cy="0.719" r="0.719" transform="translate(68.253 49.672)"/><circle class="a" cx="0.719" cy="0.719" r="0.719" transform="translate(73.971 49.672)"/><path class="e" d="M-1458.489,333.474s.189,3.406,4.778,3.406" transform="translate(1523.892 -279.987)"/><path class="e" d="M-1474.872,330.564h-1.123a1.832,1.832,0,0,1-1.833-1.832v0a1.832,1.832,0,0,1,1.833-1.832h1.123" transform="translate(1529.306 -278.145)"/><path class="a" d="M-1476,280.617a5.306,5.306,0,0,0-3.091-4.82,5.31,5.31,0,0,0,.34-5.826,5.308,5.308,0,0,0-5.087-2.629,5.311,5.311,0,0,0-2.619-5.216,5.308,5.308,0,0,0-5.719.267,5.311,5.311,0,0,0-4.876-3.208,5.306,5.306,0,0,0-4.82,3.091,5.31,5.31,0,0,0-5.826-.34,5.306,5.306,0,0,0-2.628,5.087,5.31,5.31,0,0,0-5.216,2.619,5.308,5.308,0,0,0,.267,5.719,5.311,5.311,0,0,0-3.208,4.876,5.307,5.307,0,0,0,3.091,4.82,5.31,5.31,0,0,0-.34,5.826,5.306,5.306,0,0,0,5.087,2.628,5.309,5.309,0,0,0,2.619,5.216,5.306,5.306,0,0,0,5.719-.266,5.31,5.31,0,0,0,4.876,3.207,5.307,5.307,0,0,0,4.82-3.09,5.311,5.311,0,0,0,5.826.34,5.306,5.306,0,0,0,2.628-5.087,5.309,5.309,0,0,0,5.216-2.619,5.307,5.307,0,0,0-.266-5.719A5.311,5.311,0,0,0-1476,280.617Z" transform="translate(1540.689 -259.186)"/><circle class="e" cx="5.31" cy="5.31" r="5.31" transform="translate(55.073 33.391)"/><path class="a" d="M-1461.222,309.152a14.154,14.154,0,0,0-13.89,13.109c2.38.835,15.571-.259,15.571-9.577,0,0,2.176,7.453,12.057,8.1A13.936,13.936,0,0,0-1461.222,309.152Z" transform="translate(1528.546 -273.176)"/></g><path class="j" d="M-1445.486,431.7v-.017h-70.88v.017a33.61,33.61,0,0,0-32.96,33.6v16h33.976v9.552h68.848V481.3h33.975v9.552h0V465.3A33.609,33.609,0,0,0-1445.486,431.7Z" transform="translate(1549.327 -222.853)"/><path class="h" d="M0,0H15.778a0,0,0,0,1,0,0V9.527a7.889,7.889,0,0,1-7.889,7.889h0A7.889,7.889,0,0,1,0,9.527V0A0,0,0,0,1,0,0Z" transform="translate(78.921 241.032)"/><g transform="translate(33.976 177.875)"><g transform="translate(0 63.157)"><line class="h" y2="17.416"/><line class="h" y2="17.416" transform="translate(68.848)"/></g><circle class="b" cx="13.945" cy="13.945" r="13.945" transform="translate(19.404 0)"/><path class="a" d="M-1465.28,394.783l2.164,3.647h15.423a13.951,13.951,0,0,0-13.3-9.74,13.951,13.951,0,0,0-13.3,9.74h9.01Z" transform="translate(1494.34 -388.69)"/><line class="e" y2="1.716" transform="translate(36.205 20.793)"/><path class="e" d="M-1449.516,405.361v4.357h-3.1" transform="translate(1488.272 -393.358)"/><circle class="a" cx="0.719" cy="0.719" r="0.719" transform="translate(34.277 13.696)"/><circle class="a" cx="0.719" cy="0.719" r="0.719" transform="translate(39.995 13.696)"/><path class="e" d="M-1474.872,410.1h-1.123a1.833,1.833,0,0,1-1.833-1.832v0a1.832,1.832,0,0,1,1.833-1.832h1.123" transform="translate(1495.331 -393.659)"/></g><path class="b" d="M-1458.418,442.207a10.521,10.521,0,0,0,10.521-10.521h-21.041A10.52,10.52,0,0,0-1458.418,442.207Z" transform="translate(1526.818 -222.773)"/><rect class="c" width="33.976" height="9.552" transform="translate(102.824 258.448)"/><rect class="c" width="33.976" height="9.552" transform="translate(0 258.448)"/><path class="f" d="M0,0H11.124a2.613,2.613,0,0,1,2.613,2.613v0a2.613,2.613,0,0,1-2.613,2.613H0a0,0,0,0,1,0,0V0A0,0,0,0,1,0,0Z" transform="translate(67.325 61.29)"/><line class="k" y2="17.416" transform="translate(33.976 66.562)"/><line class="k" y2="17.416" transform="translate(102.824 66.562)"/><rect class="a" width="0.72" height="9.552" transform="translate(0 248.448)"/><rect class="a" width="0.72" height="9.552" transform="translate(136.08 248.448)"/></g></svg>