<svg xmlns="http://www.w3.org/2000/svg" width="156.5" height="253.5" viewBox="0 0 156.5 253.5"><defs><style>.a{fill:#fff;}.a,.c,.e{stroke:#2e2e4a;}.a,.c{stroke-miterlimit:10;}.b{fill:#ffd02f;}.c{fill:none;}.d,.e{fill:#2e2e4a;}.d{font-size:47px;font-family:Qanelas-LightItalic, Qanelas;font-weight:300;font-style:italic;}</style></defs><g transform="translate(0.5 0.5)"><rect class="a" width="97.791" height="94.536" transform="translate(56.935 38.21)"/><g transform="translate(0 119.889)"><path class="a" d="M-1987.44,2292.009h0a12.736,12.736,0,0,1,0-18.012l16.97-16.97a29.717,29.717,0,0,1,21.014-8.7h37.175l5.04,25.474h-42.214a4.246,4.246,0,0,0-3,1.244l-16.969,16.969A12.736,12.736,0,0,1-1987.44,2292.009Z" transform="translate(1991.171 -2248.322)"/></g><g transform="translate(25.545 119.889)"><path class="a" d="M-1877.042,2273.8h-42.215a4.247,4.247,0,0,0-3,1.244l-16.969,16.969a12.736,12.736,0,0,1-18.013,0h0a12.736,12.736,0,0,1,0-18.012l16.97-16.97a29.719,29.719,0,0,1,21.015-8.7h16.317" transform="translate(1960.973 -2248.322)"/></g><g transform="translate(65.568 119.863)"><path class="a" d="M-1824.471,2248.322v43.812a26.323,26.323,0,0,1-26.323,26.323h-1.7a12.736,12.736,0,0,1-12.737-12.737h0a12.737,12.737,0,0,1,12.737-12.737h1.7a.849.849,0,0,0,.849-.849V2273.8h-28.87a9.341,9.341,0,0,0-9.34,9.341v.507a9.341,9.341,0,0,0,9.34,9.34h0a12.737,12.737,0,0,1,12.737,12.737h0a12.737,12.737,0,0,1-12.737,12.737h0a34.814,34.814,0,0,1-34.814-34.814v-.507a34.814,34.814,0,0,1,34.814-34.814" transform="translate(1913.629 -2248.322)"/></g><g transform="translate(62.596 159.596)"><circle class="b" cx="46.702" cy="46.702" r="46.702"/><path class="c" d="M-1831.406,2343.621a37.362,37.362,0,0,0-37.362-37.362,37.362,37.362,0,0,0-37.362,37.362,37.361,37.361,0,0,0,37.362,37.362" transform="translate(1915.47 -2296.918)"/><text class="d" transform="translate(32.023 61.212)"><tspan x="0" y="0">₽</tspan></text></g><rect class="e" width="97.791" height="50.152" transform="translate(56.935)"/><path class="a" d="M-1818.285,2248.322v43.812a26.323,26.323,0,0,1-26.323,26.323h-1.7a12.736,12.736,0,0,1-12.737-12.737h0a12.737,12.737,0,0,1,12.737-12.737h1.7a.849.849,0,0,0,.849-.849V2273.8h-28.87" transform="translate(1973.012 -2128.459)"/></g></svg>