<svg xmlns="http://www.w3.org/2000/svg" width="190.343" height="372" viewBox="0 0 190.343 372"><defs><style>.a,.f{fill:#2e2e4a}.b,.c,.e{fill:#fff}.b,.e,.f,.h{stroke:#2e2e4a}.b,.f,.h{stroke-miterlimit:10}.e{stroke-linecap:round;stroke-linejoin:round}.h{fill:none}.i{fill:#3f53d9}</style></defs><path class="a" d="M93.893 0a22.222 22.222 0 0122.223 22.222V53.2H71.671V22.222A22.222 22.222 0 0193.893 0z"/><g transform="translate(.171 2.42)"><path class="b" d="M95 71.474l19.118-28.478H75.882z"/><path class="c" d="M142.812 114.373h47.189v85.147h-47.189zM0 114.373h47.189v85.147H0z"/><path class="c" d="M0 114.373h.826v85.147H0z"/><path class="a" d="M0 114.373h1v85.147H0zm189 0h1v85.147h-1z"/><path d="M144.227 43.019v-.023H45.782v.023A46.679 46.679 0 00.004 89.683v24.69h47.189v85.147h95.623v-85.147h47.188v85.147V89.683a46.678 46.678 0 00-45.777-46.664z" fill="#ffd02f"/><circle class="b" cx="19.368" cy="19.368" r="19.368" transform="translate(74.139)"/><path class="e" d="M100.196 16.67l.821 6.051h-4.308"/><circle class="a" cx=".999" cy=".999" r=".999" transform="translate(94.797 19.022)"/><circle class="a" cx=".999" cy=".999" r=".999" transform="translate(102.738 19.022)"/><path class="e" d="M90.838 24.321s.263 4.731 6.636 4.731m-21.869-6.219h-1.56a2.546 2.546 0 01-2.545-2.545 2.546 2.546 0 012.545-2.545h1.56"/><path class="f" d="M93.507 0a19.256 19.256 0 00-19.292 17.745c3.229 0 21.626.1 21.626-12.84 0 0 3.022 10.353 16.746 11.248A19.356 19.356 0 0093.507 0z"/></g><g transform="translate(.171 84.861)"><path d="M144.227 43.019v-.028H45.782v.023A46.68 46.68 0 00.004 89.679V199.52h190V89.684a46.679 46.679 0 00-45.777-46.665z" fill="#f4f8fb"/><path class="h" d="M.327 199.191V89.684A46.071 46.071 0 0113.61 57.209a46.1 46.1 0 0132.172-13.862l.322-.006v-.016h97.859l.252.022a46.1 46.1 0 0132.172 13.862 46.07 46.07 0 0113.283 32.475v109.507zm46.862-94.502v24.188m95.623-24.188v24.188"/><circle class="b" cx="19.368" cy="19.368" r="19.368" transform="translate(74.139)"/><path class="f" d="M79.001 17.181l.022 6.183a1.266 1.266 0 01-1.267 1.271H74.87a19.381 19.381 0 01-.557-7.862A19.425 19.425 0 0191.718.081a19.318 19.318 0 0114.71 4.862c-2.176 1.608-9.426 2.316-13.177 2.316a9.922 9.922 0 01-9.924 9.922h-4.328"/><path class="b" d="M79.634 17.181h-1.832a1.919 1.919 0 00-1.919 1.919 1.919 1.919 0 001.919 1.919h1.832"/><path class="e" d="M101.017 14.771v7.951h-2.408"/><circle class="a" cx=".999" cy=".999" r=".999" transform="translate(92.897 19.022)"/><circle class="a" cx=".999" cy=".999" r=".999" transform="translate(104.005 19.022)"/><path class="e" d="M90.838 24.322s.263 4.731 6.636 4.731"/></g><path class="b" d="M94.327 127.94v44.485"/><g transform="translate(.172 117.323)"><path class="i" d="M45.777 92.962h98.445v156.524H45.777z"/><path class="c" d="M94.999 121.44l19.118-28.478H75.881z"/><path class="i" d="M142.811 140.151v109.335h47.188V139.65a46.687 46.687 0 00-46.687-46.688h-6.295m-89.829 47.189v109.335H0V139.65a46.687 46.687 0 0146.687-46.688h6.3"/><path class="h" d="M47.188 154.454v24.188m95.623-24.188v24.188"/><circle class="b" cx="19.368" cy="19.368" r="19.368" transform="translate(74.138 49.966)"/><path class="e" d="M100.195 66.637l.821 6.051h-4.308"/><circle class="a" cx=".999" cy=".999" r=".999" transform="translate(94.796 68.988)"/><circle class="a" cx=".999" cy=".999" r=".999" transform="translate(102.737 68.988)"/><path class="e" d="M90.837 74.288s.263 4.73 6.636 4.73m-21.869-6.214h-1.56a2.545 2.545 0 01-2.545-2.544 2.545 2.545 0 012.545-2.544h1.56"/><path class="a" d="M89.848 29.765a7.37 7.37 0 00-4.293-6.694 7.375 7.375 0 00.472-8.092 7.372 7.372 0 00-7.065-3.651 7.376 7.376 0 00-3.636-7.244 7.372 7.372 0 00-7.943.371A7.377 7.377 0 0060.611 0a7.37 7.37 0 00-6.694 4.293 7.375 7.375 0 00-8.092-.472 7.37 7.37 0 00-3.65 7.065 7.374 7.374 0 00-7.245 3.637 7.372 7.372 0 00.371 7.943 7.376 7.376 0 00-4.455 6.772 7.371 7.371 0 004.293 6.694 7.375 7.375 0 00-.472 8.092 7.37 7.37 0 007.065 3.65 7.374 7.374 0 003.637 7.244 7.37 7.37 0 007.943-.37 7.376 7.376 0 006.772 4.454 7.371 7.371 0 006.694-4.292 7.377 7.377 0 008.092.472 7.37 7.37 0 003.65-7.065 7.374 7.374 0 007.244-3.637 7.37 7.37 0 00-.37-7.943 7.376 7.376 0 004.454-6.772z"/><circle class="e" cx="7.375" cy="7.375" r="7.375" transform="translate(76.491 46.377)"/><path class="a" d="M93.506 49.966a19.659 19.659 0 00-19.292 18.207c3.306 1.16 21.626-.36 21.626-13.3 0 0 3.022 10.352 16.746 11.248a19.356 19.356 0 00-19.08-16.155z"/></g><path d="M144.398 289.846v-.023H45.953v.023A46.68 46.68 0 00.175 336.511v22.226h47.189v13.267h95.623v-13.267h47.188v13.267-35.493a46.679 46.679 0 00-45.777-46.665z" fill="#db23b5"/><path class="h" d="M109.783 334.545h21.914v13.231a10.957 10.957 0 01-10.957 10.957 10.957 10.957 0 01-10.957-10.957v-13.231z"/><g transform="translate(47.36 246.827)"><path class="h" d="M0 87.718v24.188m95.622-24.188v24.188"/><circle class="b" cx="19.368" cy="19.368" r="19.368" transform="translate(26.95)"/><path class="a" d="M40.362 8.462l3.006 5.066h21.42A19.375 19.375 0 0046.318 0a19.376 19.376 0 00-18.47 13.528h12.514z"/><path class="e" d="M50.285 28.879v2.383m3.543-14.591v6.051H49.52"/><circle class="a" cx=".999" cy=".999" r=".999" transform="translate(47.607 19.023)"/><circle class="a" cx=".999" cy=".999" r=".999" transform="translate(55.549 19.023)"/><path class="e" d="M28.416 22.839h-1.56a2.546 2.546 0 01-2.545-2.545 2.545 2.545 0 012.545-2.545h1.56"/></g><path class="b" d="M95.171 304.591a14.612 14.612 0 0014.612-14.612H80.56a14.612 14.612 0 0014.611 14.612z"/><path class="c" d="M142.983 358.733h47.189V372h-47.189zm-142.812 0H47.36V372H.171z"/><path class="f" d="M93.678 85.073h15.451a3.629 3.629 0 013.629 3.629 3.629 3.629 0 01-3.629 3.629H93.678v-7.258z"/><path d="M47.36 92.388v24.188m95.623-24.188v24.188" stroke="#000" fill="none" stroke-miterlimit="10"/><path class="a" d="M.171 358.733h1V372h-1zm189 0h1V372h-1z"/></svg>