<svg xmlns="http://www.w3.org/2000/svg" width="100" height="100" viewBox="0 0 100 100"><defs><style>.a{fill:#db23b5;}</style></defs><path class="a" d="M-1217.514,215.253l7.919-5.452,5.847,7.632,9.216-2.738,3.2,9.065,9.611.244.244,9.611,9.066,3.2-2.738,9.216,7.632,5.847-5.452,7.919,5.452,7.919-7.632,5.847,2.738,9.216-9.066,3.2-.244,9.611-9.611.244-3.2,9.065-9.216-2.738-5.847,7.632-7.919-5.452-7.919,5.452-5.847-7.632-9.216,2.738-3.2-9.065-9.611-.244-.244-9.611-9.065-3.2,2.738-9.216-7.632-5.847,5.451-7.919-5.451-7.919,7.632-5.847-2.738-9.216,9.065-3.2.244-9.611,9.611-.244,3.2-9.065,9.216,2.738,5.847-7.632Z" transform="translate(1267.514 -209.802)"/></svg>