<svg xmlns="http://www.w3.org/2000/svg" width="154.234" height="240.5" viewBox="0 0 154.234 240.5"><defs><style>.a,.b{fill:#fff;stroke:#2e2e4a;}.a{stroke-miterlimit:10;}.c{fill:#eaf9f9;}.d{fill:#db23b5;}.e{fill:#2e2e4a;}</style></defs><g transform="translate(12.296 0)"><path class="a" d="M-2088.739,1706.322v15.661h-35.223v88.923h88.505v-73.88c8.269-.278,14.9-7.754,14.9-16.958v-13.745Z" transform="translate(2140.546 -1570.906)"/><path class="b" d="M12.144-.568l36.8-1.839a10.77,10.77,0,0,1,11.53,11.53A13.71,13.71,0,0,1,47.729,21.865L10.931,23.7A10.77,10.77,0,0,1-.6,12.175,13.71,13.71,0,0,1,12.144-.568Z" transform="translate(81.685 92.368) rotate(-45)"/><rect class="c" width="77.49" height="155.908" rx="20" transform="translate(27.702)"/><path class="a" d="M-2032,1688.647V1566.706c0-.279-.026-.55-.038-.825h-77.414c-.012.275-.039.547-.039.825v121.941Z" transform="translate(2137.197 -1549.723)"/><path class="a" d="M-2011.237,1686.8h-11.143c-6.366,0-11.528-5.7-11.528-12.737h0c0-7.036,5.161-12.738,11.528-12.738h11.143c6.366,0,11.527,5.7,11.527,12.738v26.324H-2021.4" transform="translate(2119.698 -1564.118)"/><path class="a" d="M-2011.237,1716.8h-11.143c-6.366,0-11.528-5.7-11.528-12.738h0c0-7.035,5.161-12.738,11.528-12.738h11.143c6.366,0,11.527,5.7,11.527,12.738v9.341" transform="translate(2119.698 -1568.643)"/><path class="a" d="M-2085.883,1722.518v-.671c0-14.81-10.865-26.815-24.267-26.815h2.628c8.041,0,14.469-7.625,13.688-16.688-.682-7.9-7.1-13.7-14.278-13.7h-17.339c-11.1,0-20.091,9.939-20.091,22.2h0a23.629,23.629,0,0,0,4.815,14.418l11.769,15.225v29.5" transform="translate(2145.542 -1564.619)"/></g><g transform="translate(0 24.209)"><rect class="d" width="94.269" height="63.766" rx="10"/><rect class="e" width="94.269" height="19.531" transform="translate(0 12.816)"/></g><rect class="e" width="88.506" height="33.171" transform="translate(28.88 206.829)"/></svg>