<svg xmlns="http://www.w3.org/2000/svg" width="154.234" height="240.5" viewBox="0 0 154.234 240.5"><defs><style>.a{fill:#fff;stroke:#2e2e4a;stroke-miterlimit:10}.e{fill:#2e2e4a}</style></defs><g transform="translate(12.296)"><path class="a" d="M51.807 135.416v15.661H16.584V240h88.505v-73.88c8.269-.278 14.9-7.754 14.9-16.958v-13.745z"/><path d="M89.87 83.38l24.722-27.323a10.77 10.77 0 0116.306 0 13.71 13.71 0 01-.003 18.022l-24.722 27.318a10.77 10.77 0 01-16.303.004 13.71 13.71 0 010-18.022z" fill="#fff" stroke="#2e2e4a"/><rect width="77.49" height="155.908" rx="20" transform="translate(27.702)" fill="#eaf9f9"/><path class="a" d="M105.197 138.924V16.983c0-.279-.026-.55-.038-.825H27.745c-.012.275-.039.547-.039.825v121.941z"/><path class="a" d="M108.461 122.682H97.318c-6.366 0-11.528-5.7-11.528-12.737 0-7.036 5.161-12.738 11.528-12.738h11.143c6.366 0 11.527 5.7 11.527 12.738v26.324h-21.69"/><path class="a" d="M108.461 148.157H97.318c-6.366 0-11.528-5.7-11.528-12.738 0-7.035 5.161-12.738 11.528-12.738h11.143c6.366 0 11.527 5.7 11.527 12.738v9.341m-60.329 13.139v-.671c0-14.81-10.865-26.815-24.267-26.815h2.628c8.041 0 14.469-7.625 13.688-16.688-.682-7.9-7.1-13.7-14.278-13.7H20.091c-11.1 0-20.091 9.939-20.091 22.2a23.629 23.629 0 004.815 14.418l11.769 15.225v29.5"/></g><g transform="translate(0 24.209)"><rect width="94.269" height="63.766" rx="10" fill="#db23b5"/><path class="e" d="M0 12.816h94.269v19.531H0z"/></g><path class="e" d="M28.88 206.829h88.506V240H28.88z"/></svg>