<svg xmlns="http://www.w3.org/2000/svg" width="280.5" height="313.5" viewBox="0 0 280.5 313.5"><defs><style>.j,.l{fill:none}.e,.f,.g,.i,.l{stroke:#2e2e4a}.e,.f,.g,.l{stroke-miterlimit:10}.b{fill:#2e2e4a}.e,.i{fill:#fff}.d,.g{fill:#ffd02f}.f{fill:#eaf9f9}.h{fill:#3f53d9}.i,.j{stroke-linecap:round;stroke-linejoin:round}.j{stroke:#fff}.m{fill:#db23b5}</style></defs><path d="M217.363 253.329l-12.516 12.526-12.518-12.526-12.516 12.526-12.516-12.526-12.516 12.526-12.516-12.526-12.516 12.526-12.516-12.526-12.516 12.526-12.516-12.526-12.516 12.526-12.516-12.526-12.516 12.526-12.516-12.526m175.226 26.56l-12.516 12.526-12.516-12.526-12.516 12.526-12.516-12.526-12.516 12.526-12.516-12.526-12.516 12.526-12.516-12.526-12.516 12.526-12.516-12.526-12.516 12.526-12.516-12.526-12.516 12.526-12.516-12.526" stroke-width="12" stroke-miterlimit="10" stroke="#2e2e4a" fill="none"/><path class="b" d="M220.5 239.353H1.791V158.93a60 60 0 0160-60H220.5a60 60 0 0160 60v20.423a60 60 0 01-60 60z"/><path d="M220.5 233.943H1.791V153.52a60 60 0 0160-60H220.5a60 60 0 0160 60v20.423a60 60 0 01-60 60z" fill="#fff"/><path class="d" d="M164.089 233.943H55.351V117.561h108.738z"/><path class="d" d="M55.16 170.973v62.967H1.791v-63.536a52.824 52.824 0 0152.8-52.846h7.119"/><path class="e" d="M7.54 248.095a7.043 7.043 0 007.041-7.046v-16.493h7.906v-8.374H7.54a7.043 7.043 0 00-7.04 7.047v17.82a7.043 7.043 0 007.04 7.046z"/><path class="e" d="M21.705 248.095a7.043 7.043 0 007.041-7.046v-16.493h7.906v-8.374H21.705a7.043 7.043 0 00-7.04 7.047v17.82a7.043 7.043 0 007.04 7.046z"/><path class="e" d="M35.786 216.182h11.66a7.91 7.91 0 017.906 7.913v9.849H42.826v7.105a7.043 7.043 0 01-7.041 7.046 7.044 7.044 0 01-7.041-7.046v-17.82a7.044 7.044 0 017.042-7.047zm7.04 17.761v-9.517"/><path class="d" d="M164.13 170.974v94.518c0 26.1 20.823 47.754 46.9 48.006a47.436 47.436 0 0047.831-47.4V194.36h-41.362v-23.953a52.824 52.824 0 00-52.8-52.846h-6.969"/><path class="f" d="M258.86 194.382h-53.369"/><path class="g" d="M210.384 263.237l-1.908-2.11a4 4 0 00-5.95.017l-1.872 2.093"/><g transform="translate(202.377 105.248)"><path class="e" d="M23.461 7.171v42.57h28.687v39.392H9.118V7.171A7.168 7.168 0 0116.283 0h.013a7.168 7.168 0 017.165 7.171z"/><rect class="e" width="14.343" height="35.052" rx="7.172" transform="rotate(180 26.073 31.213)"/><rect class="e" width="14.343" height="35.052" rx="7.172" transform="rotate(-180 18.902 31.213)"/><path class="e" d="M32.802 77.449v-.334A13.348 13.348 0 0019.46 63.761h1.442a7.565 7.565 0 007.525-8.309 7.782 7.782 0 00-7.85-6.823h-9.532A11.05 11.05 0 00-.001 59.683a11.06 11.06 0 002.647 7.18l6.471 7.581v14.689"/></g><path class="g" d="M159.224 167.675l1.908 2.11a4 4 0 005.95-.016l1.872-2.094m-118.469 0l1.908 2.11a4 4 0 005.95-.016l1.872-2.094"/><g transform="translate(53.542 10.78)"><ellipse class="h" cx="13.868" cy="17.218" rx="13.868" ry="17.218" transform="translate(71.377 53.17)"/><path class="b" d="M59.268 29.922a13.061 13.061 0 01-3.838-14.864 7.4 7.4 0 00-7.1-3.67 7.4 7.4 0 00-11.633-6.909 7.4 7.4 0 00-13.526-.163 7.4 7.4 0 00-11.8 6.627A234.882 234.882 0 01-.008 29.393 13.064 13.064 0 013.83 44.257a7.4 7.4 0 007.1 3.67 7.4 7.4 0 0011.633 6.909 7.4 7.4 0 0013.526.163 7.4 7.4 0 0011.8-6.627 234.39 234.39 0 0111.379-18.451z"/><ellipse class="i" cx="7.408" cy="7.415" rx="7.408" ry="7.415" transform="translate(45.851 46.623)"/><ellipse class="e" cx="21.905" cy="21.923" rx="21.905" ry="21.923" transform="translate(40.586 52.533)"/><path class="i" d="M70.056 71.403l.929 6.849h-4.872"/><ellipse class="b" cx="1.13" cy="1.131" rx="1.13" ry="1.131" transform="translate(63.949 74.065)"/><ellipse class="b" cx="1.13" cy="1.131" rx="1.13" ry="1.131" transform="translate(72.93 74.065)"/><path class="i" d="M59.471 80.063s.3 5.354 7.505 5.354m-24.733-7.034h-1.764a2.879 2.879 0 01-2.878-2.88 2.879 2.879 0 012.878-2.88h1.763"/><path class="b" d="M62.494 52.533c-11.523 0-20.948 9.3-21.819 20.608 3.738 1.313 24.459-.407 24.459-15.055 0 0 3.418 11.717 18.939 12.732a21.9 21.9 0 00-21.579-18.285z"/><ellipse class="h" cx="13.868" cy="17.218" rx="13.868" ry="17.218" transform="translate(26.269 53.17)"/><ellipse class="j" cx="8.24" cy="10.23" rx="8.24" ry="10.23" transform="translate(29.362 60.158)"/><path d="M40.137 53.17v-9.71a12.729 12.729 0 0112.724-12.734h19.661A12.729 12.729 0 0185.246 43.46v9.71" stroke-linecap="round" stroke-linejoin="round" stroke="#2e2e4a" fill="none"/><path class="l" d="M85.245 87.602v5.995a5.091 5.091 0 01-5.089 5.094H77.8"/><ellipse class="f" cx="2.313" cy="2.315" rx="2.313" ry="2.315" transform="translate(74.691 96.379)"/><path class="j" d="M40.137 53.17v-9.71a12.729 12.729 0 0112.724-12.734h6.331"/></g><path class="f" d="M205.491 194.382v65.427"/><path class="e" d="M109.72 117.633v116.311"/><path class="l" d="M55.351 171.103v62.84h108.738v-62.84"/><g transform="translate(152.655 .5)"><ellipse class="e" cx="25.618" cy="25.639" rx="25.618" ry="25.639"/><g transform="translate(21.893 13.886)"><path class="m" d="M6.317 15.077H1.133L-.001 7.295v-7.3h7.448v7.3z"/><rect class="m" width="6.479" height="6.485" rx="3.24" transform="translate(.486 17.022)"/></g></g><path class="l" d="M109.457 117.544c-23.981 8.27-6.264 18.988 0 0m.377 0c23.981 8.27 6.264 18.988 0 0"/></svg>