<svg xmlns="http://www.w3.org/2000/svg" width="280.5" height="313.5" viewBox="0 0 280.5 313.5"><defs><style>.a,.j,.k,.l{fill:none;}.a,.e,.f,.g,.i,.k,.l{stroke:#2e2e4a;}.a,.e,.f,.g,.l{stroke-miterlimit:10;}.a{stroke-width:12px;}.b{fill:#2e2e4a;}.c,.e,.i{fill:#fff;}.d,.g{fill:#ffd02f;}.f{fill:#eaf9f9;}.h{fill:#3f53d9;}.i,.j,.k{stroke-linecap:round;stroke-linejoin:round;}.j{stroke:#fff;}.m{fill:#db23b5;}</style></defs><g transform="translate(-359.5 -6412.5)"><g transform="translate(401.64 6665.829)"><path class="a" d="M-319.866,950.256l-12.516,12.526L-344.9,950.256l-12.516,12.526-12.516-12.526-12.516,12.526-12.516-12.526-12.516,12.526-12.516-12.526-12.516,12.526-12.516-12.526-12.516,12.526-12.516-12.526-12.516,12.526-12.516-12.526" transform="translate(495.089 -950.256)"/><g transform="translate(0 26.56)"><path class="a" d="M-319.866,1006.661l-12.516,12.526-12.516-12.526-12.516,12.526-12.516-12.526-12.516,12.526-12.516-12.526-12.516,12.526-12.516-12.526-12.516,12.526-12.516-12.526-12.516,12.526-12.516-12.526-12.516,12.526-12.516-12.526" transform="translate(495.089 -1006.661)"/></g></g><g transform="translate(360 6413)"><g transform="translate(0 0)"><path class="b" d="M60,0H278.709a0,0,0,0,1,0,0V80.423a60,60,0,0,1-60,60H60a60,60,0,0,1-60-60V60A60,60,0,0,1,60,0Z" transform="translate(280 238.853) rotate(-180)"/><path class="c" d="M60,0H278.709a0,0,0,0,1,0,0V80.423a60,60,0,0,1-60,60H60a60,60,0,0,1-60-60V60A60,60,0,0,1,60,0Z" transform="translate(280 233.443) rotate(-180)"/><rect class="d" width="108.738" height="116.382" transform="translate(163.589 233.443) rotate(-180)"/><path class="d" d="M475.269,1981.033V2044H421.9v-63.536a52.824,52.824,0,0,1,52.8-52.846h7.119" transform="translate(-420.609 -1810.56)"/><g transform="translate(0 215.682)"><path class="e" d="M426.911,2114.428h0a7.043,7.043,0,0,0,7.041-7.046v-16.493h7.906v-8.374H426.911a7.043,7.043,0,0,0-7.04,7.047v17.82A7.043,7.043,0,0,0,426.911,2114.428Z" transform="translate(-419.871 -2082.515)"/><path class="e" d="M449.176,2114.428h0a7.043,7.043,0,0,0,7.041-7.046v-16.493h7.906v-8.374H449.176a7.043,7.043,0,0,0-7.04,7.047v17.82A7.043,7.043,0,0,0,449.176,2114.428Z" transform="translate(-427.971 -2082.515)"/><path class="e" d="M471.309,2082.515h11.66a7.91,7.91,0,0,1,7.906,7.913v9.849H478.349v7.105a7.043,7.043,0,0,1-7.041,7.046h0a7.044,7.044,0,0,1-7.041-7.046v-17.82A7.044,7.044,0,0,1,471.309,2082.515Z" transform="translate(-436.023 -2082.515)"/><line class="e" y1="9.517" transform="translate(42.326 8.244)"/></g><g transform="translate(157.227 117.06)"><path class="d" d="M673.416,1981.034v94.518c0,26.1,20.823,47.754,46.9,48.006a47.436,47.436,0,0,0,47.831-47.4V2004.42H726.785v-23.953a52.824,52.824,0,0,0-52.8-52.846h-6.969" transform="translate(-667.013 -1927.62)"/><path class="f" d="M742.093,2151.035" transform="translate(-694.329 -2008.786)"/><line class="f" x1="53.369" transform="translate(47.764 76.822)"/><path class="g" d="M744.218,2154.463l-1.908-2.11a4,4,0,0,0-5.95.017l-1.872,2.093" transform="translate(-691.561 -2008.786)"/></g><g transform="translate(201.877 104.748)"><path class="e" d="M765.873,1915.454v42.57h28.687v39.392H751.53v-81.962a7.168,7.168,0,0,1,7.165-7.171h.013A7.168,7.168,0,0,1,765.873,1915.454Z" transform="translate(-742.412 -1908.283)"/><rect class="e" width="14.343" height="35.052" rx="7.172" transform="translate(52.147 62.427) rotate(180)"/><rect class="e" width="14.343" height="35.052" rx="7.172" transform="translate(37.804 62.427) rotate(-180)"/><path class="e" d="M770,2013.48v-.334a13.348,13.348,0,0,0-13.342-13.354H758.1a7.565,7.565,0,0,0,7.525-8.309,7.782,7.782,0,0,0-7.85-6.823h-9.532a11.05,11.05,0,0,0-11.046,11.054h0a11.06,11.06,0,0,0,2.647,7.18l6.471,7.581v14.689" transform="translate(-737.198 -1936.031)"/></g><path class="g" d="M669.366,2006.33l1.908,2.11a4,4,0,0,0,5.95-.016l1.872-2.094" transform="translate(-510.642 -1839.155)"/><path class="g" d="M498.442,2006.33l1.908,2.11a4,4,0,0,0,5.95-.016l1.872-2.094" transform="translate(-448.457 -1839.155)"/><g transform="translate(53.042 10.28)"><ellipse class="h" cx="13.868" cy="17.218" rx="13.868" ry="17.218" transform="translate(71.377 53.17)"/><path class="b" d="M562.515,1789.833a13.061,13.061,0,0,1-3.838-14.864,7.4,7.4,0,0,0-7.1-3.67,7.4,7.4,0,0,0-11.633-6.909,7.4,7.4,0,0,0-13.526-.163,7.4,7.4,0,0,0-11.8,6.627,234.882,234.882,0,0,1-11.379,18.45,13.064,13.064,0,0,1,3.838,14.864,7.4,7.4,0,0,0,7.1,3.67,7.4,7.4,0,0,0,11.633,6.909,7.4,7.4,0,0,0,13.526.163,7.4,7.4,0,0,0,11.8-6.627,234.39,234.39,0,0,1,11.379-18.451Z" transform="translate(-503.247 -1759.911)"/><ellipse class="i" cx="7.408" cy="7.415" rx="7.408" ry="7.415" transform="translate(45.851 46.623)"/><ellipse class="e" cx="21.905" cy="21.923" rx="21.905" ry="21.923" transform="translate(40.586 52.533)"/><path class="i" d="M611.111,1872.056l.929,6.849h-4.872" transform="translate(-541.055 -1800.653)"/><ellipse class="b" cx="1.13" cy="1.131" rx="1.13" ry="1.131" transform="translate(63.949 74.065)"/><ellipse class="b" cx="1.13" cy="1.131" rx="1.13" ry="1.131" transform="translate(72.93 74.065)"/><path class="i" d="M596.729,1885.658s.3,5.354,7.505,5.354" transform="translate(-537.258 -1805.595)"/><path class="i" d="M566.994,1879.731H565.23a2.879,2.879,0,0,1-2.878-2.88v0a2.879,2.879,0,0,1,2.878-2.88h1.763" transform="translate(-524.751 -1801.348)"/><path class="b" d="M589,1842.419c-11.523,0-20.948,9.3-21.819,20.608,3.738,1.313,24.459-.407,24.459-15.055,0,0,3.418,11.717,18.939,12.732A21.9,21.9,0,0,0,589,1842.419Z" transform="translate(-526.506 -1789.886)"/><ellipse class="h" cx="13.868" cy="17.218" rx="13.868" ry="17.218" transform="translate(26.269 53.17)"/><ellipse class="j" cx="8.24" cy="10.23" rx="8.24" ry="10.23" transform="translate(29.362 60.158)"/><path class="k" d="M566.338,1830.613v-9.71a12.729,12.729,0,0,1,12.724-12.734h19.661a12.729,12.729,0,0,1,12.724,12.734v9.71" transform="translate(-526.201 -1777.443)"/><path class="l" d="M632.984,1897.5v5.995a5.091,5.091,0,0,1-5.089,5.094h-2.356" transform="translate(-547.739 -1809.898)"/><ellipse class="f" cx="2.313" cy="2.315" rx="2.313" ry="2.315" transform="translate(74.691 96.379)"/><path class="j" d="M566.338,1830.613v-9.71a12.729,12.729,0,0,1,12.724-12.734h6.331" transform="translate(-526.201 -1777.443)"/></g><line class="f" y2="65.427" transform="translate(204.991 193.882)"/><line class="e" y2="116.311" transform="translate(109.22 117.133)"/><path class="l" d="M506.09,2011.714v62.84H614.828v-62.84" transform="translate(-451.239 -1841.111)"/><g transform="translate(152.155 0)"><ellipse class="e" cx="25.618" cy="25.639" rx="25.618" ry="25.639"/><g transform="translate(21.893 13.886)"><path class="m" d="M699.77,1802.325h-5.184l-1.134-7.782v-7.3H700.9v7.3Z" transform="translate(-693.453 -1787.248)"/><rect class="m" width="6.479" height="6.485" rx="3.24" transform="translate(0.486 17.022)"/></g></g><g transform="translate(96.765 117.044)"><path class="l" d="M580.74,1927.62c-23.981,8.27-6.264,18.988,0,0" transform="translate(-568.548 -1927.62)"/><path class="l" d="M592.265,1927.62c23.981,8.27,6.264,18.988,0,0" transform="translate(-579.696 -1927.62)"/></g></g></g></g></svg>